<?xml version="1.0" encoding="UTF-8" standalone="no"?>
<!-- Created with Inkscape (http://www.inkscape.org/) -->

<svg
   xmlns:dc="http://purl.org/dc/elements/1.1/"
   xmlns:cc="http://creativecommons.org/ns#"
   xmlns:rdf="http://www.w3.org/1999/02/22-rdf-syntax-ns#"
   xmlns:svg="http://www.w3.org/2000/svg"
   xmlns="http://www.w3.org/2000/svg"
   xmlns:sodipodi="http://sodipodi.sourceforge.net/DTD/sodipodi-0.dtd"
   xmlns:inkscape="http://www.inkscape.org/namespaces/inkscape"
   width="744.09448819"
   height="1052.3622047"
   id="svg4452"
   version="1.1"
   inkscape:version="0.48.5 r10040"
   sodipodi:docname="lil_pig.svg">
  <defs
     id="defs4454" />
  <sodipodi:namedview
     id="base"
     pagecolor="#ffffff"
     bordercolor="#666666"
     borderopacity="1.0"
     inkscape:pageopacity="0.0"
     inkscape:pageshadow="2"
     inkscape:zoom="0.24748737"
     inkscape:cx="488.52851"
     inkscape:cy="73.490149"
     inkscape:document-units="px"
     inkscape:current-layer="layer1"
     showgrid="false"
     inkscape:window-width="858"
     inkscape:window-height="793"
     inkscape:window-x="2925"
     inkscape:window-y="172"
     inkscape:window-maximized="0" />
  <metadata
     id="metadata4457">
    <rdf:RDF>
      <cc:Work
         rdf:about="">
        <dc:format>image/svg+xml</dc:format>
        <dc:type
           rdf:resource="http://purl.org/dc/dcmitype/StillImage" />
        <dc:title></dc:title>
      </cc:Work>
    </rdf:RDF>
  </metadata>
  <g
     inkscape:label="Layer 1"
     inkscape:groupmode="layer"
     id="layer1">
    <g
       id="g5139">
      <path
         transform="matrix(-1.2400699,0,0,0.74268977,232.96947,145.59739)"
         d="m 97.14286,463.79074 c 2.292041,2.7218 -2.538114,4.43246 -4.523804,3.80952 -5.381096,-1.68813 -5.660678,-8.78994 -3.095242,-12.85713 4.588965,-7.27524 14.887526,-7.29088 21.190456,-2.38096 9.24981,7.20551 8.97756,21.07077 1.66668,29.52379 -9.74424,11.26653 -27.28481,10.68877 -37.85711,0.9524 -13.304161,-12.25224 -12.412791,-33.51363 -0.238118,-46.19044 14.745161,-15.35333 39.750778,-14.14424 54.523768,0.47616 17.40946,17.22964 15.88035,45.99312 -1.19045,62.85709 -19.7089,19.47012 -52.238944,17.61958 -71.190416,-1.90472 -8.177482,-8.42466 -13.389719,-19.48758 -14.844651,-31.12588"
         sodipodi:t0="0"
         sodipodi:argument="-17.978653"
         sodipodi:radius="55.64867"
         sodipodi:revolution="2.3523495"
         sodipodi:expansion="1"
         sodipodi:cy="463.79074"
         sodipodi:cx="97.14286"
         id="path5032"
         style="fill:#ffaaaa;fill-opacity:1;stroke:#ff5555;stroke-width:4.00028849;stroke-linecap:butt;stroke-linejoin:miter;stroke-miterlimit:4;stroke-opacity:1;stroke-dasharray:none"
         sodipodi:type="spiral" />
      <path
         sodipodi:type="spiral"
         style="fill:none;stroke:#000000;stroke-width:4.00028849;stroke-linecap:butt;stroke-linejoin:miter;stroke-miterlimit:4;stroke-opacity:1;stroke-dasharray:none"
         id="path5056"
         sodipodi:cx="97.14286"
         sodipodi:cy="463.79074"
         sodipodi:expansion="1"
         sodipodi:revolution="2.3523495"
         sodipodi:radius="55.64867"
         sodipodi:argument="-17.978653"
         sodipodi:t0="0"
         d="m 97.14286,463.79074 c 2.292041,2.7218 -2.538114,4.43246 -4.523804,3.80952 -5.381096,-1.68813 -5.660678,-8.78994 -3.095242,-12.85713 4.588965,-7.27524 14.887526,-7.29088 21.190456,-2.38096 9.24981,7.20551 8.97756,21.07077 1.66668,29.52379 -9.74424,11.26653 -27.28481,10.68877 -37.85711,0.9524 -13.304161,-12.25224 -12.412791,-33.51363 -0.238118,-46.19044 14.745161,-15.35333 39.750778,-14.14424 54.523768,0.47616 17.40946,17.22964 15.88035,45.99312 -1.19045,62.85709 -19.7089,19.47012 -52.238944,17.61958 -71.190416,-1.90472 -8.177482,-8.42466 -13.389719,-19.48758 -14.844651,-31.12588"
         transform="matrix(-1.32355,0,0,0.79268682,242.74026,122.30315)" />
      <g
         id="g5122"
         transform="matrix(-0.7617012,0,0,1.2891842,770.45616,-42.039313)">
        <path
           sodipodi:nodetypes="sssssss"
           inkscape:connector-curvature="0"
           id="path5124"
           d="m 391.42857,240.93361 c 0,18.93548 -15.0812,21.15373 -32.43872,21.15373 -17.35752,0 -74.17667,-2.21825 -74.17667,-21.15373 0,-9.46774 -19.39406,-20.05947 4.47614,-53.53808 2.44317,-3.42661 16.58394,19.38851 26.65746,22.45179 10.07351,3.06327 25.5717,10.94272 29.91108,10.94272 17.35752,0 45.57071,1.20809 45.57071,20.14357 z"
           style="fill:#ff8080;fill-opacity:1;stroke:#000000;stroke-width:4;stroke-miterlimit:4;stroke-opacity:1" />
        <path
           inkscape:connector-curvature="0"
           id="path5126"
           d="m 287.77129,209.7916 c -5.72496,7.03852 -0.50011,8.58406 6.42727,15.66498 4.9114,6.56714 17.74582,9.35478 21.46085,16.60679 -0.57806,8.55236 9.30438,12.13771 16.97114,13.68881 13.98545,2.76659 28.97036,3.80743 43.11281,1.24942 8.47999,-1.26133 13.24076,-9.60531 11.40729,-17.02326 -2.20247,-8.78129 -13.6566,-10.821 -21.74629,-11.86027 -8.76346,-1.46762 -18.18814,0.75756 -26.25667,-3.45525 -7.15895,-3.27266 -15.09907,-4.93189 -22.06237,-8.44936 -7.17622,-4.59767 -18.4921,-13.88576 -24.94406,-19.08762 z"
           style="fill:#ffaaaa;fill-opacity:1;stroke:none"
           sodipodi:nodetypes="ccccccccccc" />
      </g>
      <path
         sodipodi:nodetypes="sssss"
         inkscape:connector-curvature="0"
         id="path4968"
         d="m 610.13214,463.44326 c 0,121.06254 -97.05452,95.9645 -224.25386,95.9645 -127.19934,0 -238.396,21.05743 -238.396,-100.00511 0,-121.06253 103.11544,-231.32494 230.31478,-231.32494 127.19934,0 232.33508,114.30302 232.33508,235.36555 z"
         style="fill:#ff8080;fill-opacity:1;stroke:#000000;stroke-width:8;stroke-linecap:round;stroke-linejoin:round;stroke-miterlimit:4;stroke-opacity:1;stroke-dasharray:none" />
      <path
         sodipodi:nodetypes="sssss"
         inkscape:connector-curvature="0"
         id="path5133"
         d="m 604.20665,432.38779 c 14.2857,82.81885 -30.18052,106.90531 -157.28393,106.90531 -127.10338,0 -257.28389,-48.37217 -258.71246,-138.33389 -1.45108,-91.37875 67.32337,-166.9053 194.42676,-166.9053 127.1034,0 206.03481,108.27361 221.56963,198.33388 z"
         style="fill:#ffaaaa;fill-opacity:1;stroke:none" />
      <path
         sodipodi:nodetypes="sssss"
         inkscape:connector-curvature="0"
         id="path5128"
         d="m 262.63967,457.38232 c 0,14.97376 -13.11556,27.11239 -29.29442,27.11239 -16.17887,0 -50.79415,13.65504 -50.79415,-1.31872 0,-14.97375 34.61528,-52.90605 50.79415,-52.90605 16.17886,0 29.29442,12.13863 29.29442,27.11238 z"
         style="fill:#aa4400;fill-opacity:1;stroke:none"
         transform="matrix(0.94748491,-0.31980048,0.31980048,0.94748491,84.17601,3.6890548)" />
      <g
         transform="translate(17.142857,-34.285714)"
         id="g4983">
        <path
           sodipodi:type="arc"
           style="fill:#808080;fill-opacity:1;stroke:#000000;stroke-width:4;stroke-miterlimit:4;stroke-opacity:1;stroke-dasharray:none"
           id="path4975"
           sodipodi:cx="474.7717"
           sodipodi:cy="425.05746"
           sodipodi:rx="44.446712"
           sodipodi:ry="71.720833"
           d="m 519.21841,425.05746 c 0,39.61033 -19.89947,71.72084 -44.44671,71.72084 -24.54724,0 -44.44671,-32.11051 -44.44671,-71.72084 0,-39.61032 19.89947,-71.72083 44.44671,-71.72083 24.54724,0 44.44671,32.11051 44.44671,71.72083 z" />
        <path
           d="m 519.21841,425.05746 c 0,39.61033 -19.89947,71.72084 -44.44671,71.72084 -24.54724,0 -44.44671,-32.11051 -44.44671,-71.72084 0,-39.61032 19.89947,-71.72083 44.44671,-71.72083 24.54724,0 44.44671,32.11051 44.44671,71.72083 z"
           sodipodi:ry="71.720833"
           sodipodi:rx="44.446712"
           sodipodi:cy="425.05746"
           sodipodi:cx="474.7717"
           id="path4977"
           style="fill:#f9f9f9;fill-opacity:1;stroke:none"
           sodipodi:type="arc"
           transform="matrix(0.81818182,0,0,0.92221511,90.362737,31.20345)" />
        <path
           sodipodi:type="arc"
           style="fill:#000000;fill-opacity:1;stroke:none"
           id="path4979"
           sodipodi:cx="485.88336"
           sodipodi:cy="429.60977"
           sodipodi:rx="17.172594"
           sodipodi:ry="27.785839"
           d="m 503.05596,429.60977 c 0,15.3457 -7.68844,27.78584 -17.1726,27.78584 -9.48416,0 -17.17259,-12.44014 -17.17259,-27.78584 0,-15.34569 7.68843,-27.78584 17.17259,-27.78584 9.48416,0 17.1726,12.44015 17.1726,27.78584 z" />
        <path
           sodipodi:type="arc"
           style="fill:#f9f9f9;fill-opacity:1;stroke:none"
           id="path4981"
           sodipodi:cx="487.90369"
           sodipodi:cy="428.08792"
           sodipodi:rx="3.0304577"
           sodipodi:ry="4.0406103"
           d="m 490.93414,428.08792 c 0,2.23157 -1.35678,4.04061 -3.03045,4.04061 -1.67368,0 -3.03046,-1.80904 -3.03046,-4.04061 0,-2.23157 1.35678,-4.04061 3.03046,-4.04061 1.67367,0 3.03045,1.80904 3.03045,4.04061 z"
           transform="matrix(2.016466,0,0,2.016466,-504.64284,-448.52966)" />
      </g>
      <g
         transform="matrix(0.81545672,0,0,0.81545672,184.75878,27.693958)"
         id="g4989">
        <path
           d="m 519.21841,425.05746 c 0,39.61033 -19.89947,71.72084 -44.44671,71.72084 -24.54724,0 -44.44671,-32.11051 -44.44671,-71.72084 0,-39.61032 19.89947,-71.72083 44.44671,-71.72083 24.54724,0 44.44671,32.11051 44.44671,71.72083 z"
           sodipodi:ry="71.720833"
           sodipodi:rx="44.446712"
           sodipodi:cy="425.05746"
           sodipodi:cx="474.7717"
           id="path4991"
           style="fill:#808080;fill-opacity:1;stroke:#000000;stroke-width:4;stroke-miterlimit:4;stroke-opacity:1;stroke-dasharray:none"
           sodipodi:type="arc" />
        <path
           transform="matrix(0.81818182,0,0,0.92221511,90.362737,31.20345)"
           sodipodi:type="arc"
           style="fill:#f9f9f9;fill-opacity:1;stroke:none"
           id="path4993"
           sodipodi:cx="474.7717"
           sodipodi:cy="425.05746"
           sodipodi:rx="44.446712"
           sodipodi:ry="71.720833"
           d="m 519.21841,425.05746 c 0,39.61033 -19.89947,71.72084 -44.44671,71.72084 -24.54724,0 -44.44671,-32.11051 -44.44671,-71.72084 0,-39.61032 19.89947,-71.72083 44.44671,-71.72083 24.54724,0 44.44671,32.11051 44.44671,71.72083 z" />
        <path
           d="m 503.05596,429.60977 c 0,15.3457 -7.68844,27.78584 -17.1726,27.78584 -9.48416,0 -17.17259,-12.44014 -17.17259,-27.78584 0,-15.34569 7.68843,-27.78584 17.17259,-27.78584 9.48416,0 17.1726,12.44015 17.1726,27.78584 z"
           sodipodi:ry="27.785839"
           sodipodi:rx="17.172594"
           sodipodi:cy="429.60977"
           sodipodi:cx="485.88336"
           id="path4995"
           style="fill:#000000;fill-opacity:1;stroke:none"
           sodipodi:type="arc" />
        <path
           transform="matrix(2.016466,0,0,2.016466,-504.64284,-448.52966)"
           d="m 490.93414,428.08792 c 0,2.23157 -1.35678,4.04061 -3.03045,4.04061 -1.67368,0 -3.03046,-1.80904 -3.03046,-4.04061 0,-2.23157 1.35678,-4.04061 3.03046,-4.04061 1.67367,0 3.03045,1.80904 3.03045,4.04061 z"
           sodipodi:ry="4.0406103"
           sodipodi:rx="3.0304577"
           sodipodi:cy="428.08792"
           sodipodi:cx="487.90369"
           id="path4997"
           style="fill:#f9f9f9;fill-opacity:1;stroke:none"
           sodipodi:type="arc" />
      </g>
      <g
         transform="matrix(0.7617012,0,0,1.2891842,123.64226,-52.140838)"
         id="g5006">
        <path
           style="fill:#ff8080;fill-opacity:1;stroke:#000000;stroke-width:4;stroke-miterlimit:4;stroke-opacity:1"
           d="m 391.42857,240.93361 c 0,18.93548 -15.0812,21.15373 -32.43872,21.15373 -17.35752,0 -74.17667,-2.21825 -74.17667,-21.15373 0,-9.46774 -19.39406,-20.05947 4.47614,-53.53808 2.44317,-3.42661 16.58394,19.38851 26.65746,22.45179 10.07351,3.06327 25.5717,10.94272 29.91108,10.94272 17.35752,0 45.57071,1.20809 45.57071,20.14357 z"
           id="path4999"
           inkscape:connector-curvature="0"
           sodipodi:nodetypes="sssssss" />
        <path
           sodipodi:nodetypes="ccccccccccc"
           style="fill:#ffaaaa;fill-opacity:1;stroke:none"
           d="m 287.77129,209.7916 c -5.72496,7.03852 -0.50011,8.58406 6.42727,15.66498 4.9114,6.56714 17.74582,9.35478 21.46085,16.60679 -0.57806,8.55236 9.30438,12.13771 16.97114,13.68881 13.98545,2.76659 28.97036,3.80743 43.11281,1.24942 8.47999,-1.26133 13.24076,-9.60531 11.40729,-17.02326 -2.20247,-8.78129 -13.6566,-10.821 -21.74629,-11.86027 -8.76346,-1.46762 -18.18814,0.75756 -26.25667,-3.45525 -7.15895,-3.27266 -15.09907,-4.93189 -22.06237,-8.44936 -7.17622,-4.59767 -18.4921,-13.88576 -24.94406,-19.08762 z"
           id="path5002"
           inkscape:connector-curvature="0" />
      </g>
      <g
         transform="translate(2.5,-21.428571)"
         id="g5026">
        <path
           sodipodi:type="arc"
           style="fill:#ff8080;fill-opacity:1;stroke:#000000;stroke-width:4;stroke-miterlimit:4;stroke-opacity:1;stroke-dasharray:none"
           id="path5016"
           sodipodi:cx="567.85712"
           sodipodi:cy="489.50504"
           sodipodi:rx="45"
           sodipodi:ry="42.857143"
           d="m 612.85712,489.50504 c 0,23.66934 -20.14719,42.85714 -45,42.85714 -24.85282,0 -45,-19.1878 -45,-42.85714 0,-23.66935 20.14718,-42.85715 45,-42.85715 24.85281,0 45,19.1878 45,42.85715 z"
           transform="translate(-21.428571,-2.8571429)" />
        <path
           style="fill:#ffaaaa;fill-opacity:1;stroke:none"
           d="m 547.98178,450.14209 c -20.27164,0.31345 -38.96764,19.28435 -37.36988,40.68827 0.73759,21.41419 21.17594,38.29984 41.46796,36.63129 20.25357,-0.39295 38.89376,-19.34006 37.31256,-40.68827 -0.84979,-21.66542 -21.00659,-38.12905 -41.41064,-36.63129 z"
           id="path5018"
           inkscape:connector-curvature="0" />
        <path
           sodipodi:type="arc"
           style="fill:#000000;fill-opacity:1;stroke:none"
           id="path5022"
           sodipodi:cx="538.57141"
           sodipodi:cy="493.07648"
           sodipodi:rx="8.5714283"
           sodipodi:ry="17.857143"
           d="m 547.14284,493.07648 c 0,9.86223 -3.83756,17.85714 -8.57143,17.85714 -4.73387,0 -8.57143,-7.99491 -8.57143,-17.85714 0,-9.86223 3.83756,-17.85715 8.57143,-17.85715 4.73387,0 8.57143,7.99492 8.57143,17.85715 z" />
        <path
           sodipodi:type="arc"
           style="fill:#000000;fill-opacity:1;stroke:none"
           id="path5024"
           sodipodi:cx="569.28571"
           sodipodi:cy="487.36218"
           sodipodi:rx="7.8571429"
           sodipodi:ry="15"
           d="m 577.14285,487.36218 c 0,8.28427 -3.51776,15 -7.85714,15 -4.33938,0 -7.85715,-6.71573 -7.85715,-15 0,-8.28427 3.51777,-15 7.85715,-15 4.33938,0 7.85714,6.71573 7.85714,15 z" />
      </g>
      <path
         transform="matrix(0.94748491,-0.31980048,0.31980048,0.94748491,-134.01694,98.643394)"
         d="m 262.63967,457.38232 a 29.294424,16.667517 0 1 1 -58.58885,0 29.294424,16.667517 0 1 1 58.58885,0 z"
         sodipodi:ry="16.667517"
         sodipodi:rx="29.294424"
         sodipodi:cy="457.38232"
         sodipodi:cx="233.34525"
         id="path5034"
         style="fill:#aa4400;fill-opacity:1;stroke:none"
         sodipodi:type="arc" />
      <path
         d="m 363.65491,433.13867 a 6.0609155,7.0710678 0 1 1 -12.12183,0 6.0609155,7.0710678 0 1 1 12.12183,0 z"
         sodipodi:ry="7.0710678"
         sodipodi:rx="6.0609155"
         sodipodi:cy="433.13867"
         sodipodi:cx="357.59399"
         id="path5036"
         style="fill:#aa4400;fill-opacity:1;stroke:none"
         sodipodi:type="arc" />
      <path
         d="m 424.26406,467.48386 a 20.203051,21.213203 0 1 1 -40.40611,0 20.203051,21.213203 0 1 1 40.40611,0 z"
         sodipodi:ry="21.213203"
         sodipodi:rx="20.203051"
         sodipodi:cy="467.48386"
         sodipodi:cx="404.061"
         id="path5038"
         style="fill:#aa4400;fill-opacity:1;stroke:none"
         sodipodi:type="arc" />
      <path
         transform="translate(39.901026,-5.0507627)"
         d="m 474.17997,290.70715 a 8.4996395,8.0812206 0 1 1 -16.99928,0 8.4996395,8.0812206 0 1 1 16.99928,0 z"
         sodipodi:ry="8.0812206"
         sodipodi:rx="8.4996395"
         sodipodi:cy="290.70715"
         sodipodi:cx="465.68033"
         id="path5040"
         style="fill:#aa4400;fill-opacity:1;stroke:none"
         sodipodi:type="arc" />
      <path
         sodipodi:nodetypes="sssss"
         inkscape:connector-curvature="0"
         id="path5042"
         d="m 482.27171,260.77024 c 8.27818,9.06167 -19.02286,19.97297 -31.74366,15.79479 -11.96084,-3.92857 -24.24367,-9.94973 -24.24367,-22.22336 0,-12.27362 -3.07431,-18.29478 11.38653,-13.29478 12.65433,4.37538 35.67223,9.94973 44.6008,19.72335 z"
         style="fill:#aa4400;fill-opacity:1;stroke:none" />
      <path
         sodipodi:nodetypes="sssss"
         inkscape:connector-curvature="0"
         id="path5044"
         d="m 258.59906,343.74017 c -11.61675,18.27507 -15.27789,30.80965 -45.96194,30.80965 -30.68406,0 -48.69016,20.5497 -42.93148,-1.01015 5.55584,-20.80044 36.23854,-70.45814 64.64976,-75.00382 30.29869,-4.84768 36.21498,26.37146 24.24366,45.20432 z"
         style="fill:#aa4400;fill-opacity:1;stroke:none" />
    </g>
  </g>
</svg>
